<svg height="24" viewBox="0 0 24 24" width="24" xmlns="http://www.w3.org/2000/svg">
  <path
     d="M0 0h24v24H0z"
     id="bg"
     fill="none" />
  <path
     d="M 5.872699,8.3774104 C 5.2460142,11.591283 4.6325599,14.813391 4.0483311,18.027352 l 14.6525499,0 C 18.090129,14.82891 17.502424,11.623774 16.934127,8.4254189 l -4.31607,0 -0.484896,1.0706168 c 1.05293,0.00553 2.047684,0.00855 3.101423,0.014406 0.253119,2.3027263 0.510393,4.6009173 0.777756,6.9037903 -0.11605,0.102626 -0.237152,0.204608 -0.355271,0.307262 0.03315,0.05746 0.07221,0.115378 0.105622,0.172835 -0.246365,0.14787 -0.496533,0.293738 -0.748951,0.44169 -0.622112,-0.160341 -1.236677,-0.319561 -1.84357,-0.480096 -0.498533,-0.390486 -0.981429,-0.780574 -1.449892,-1.17144 -1.707166,-0.663823 -3.3264618,-1.331008 -4.8489783,-1.997202 0.171236,-1.409314 0.3553509,-2.815516 0.5377086,-4.2248509 1.3118431,0.00734 2.5570626,0.01664 3.8695797,0.023994 l 0.273655,-1.0994173 z m 5.895588,0.028812 -0.268854,1.0754166 -0.0288,0.00956 c 0.160059,8.471e-4 0.320074,-7.767e-4 0.480096,0 L 12.45003,8.406181 z M 11.38421,12.17018 c -0.389217,-8.47e-4 -0.713272,0.224251 -0.720147,0.508902 -0.0069,0.284652 0.318942,0.517776 0.720147,0.518505 0.401204,7.05e-4 0.715645,-0.224406 0.710542,-0.508902 -0.0051,-0.284497 -0.321327,-0.517619 -0.710542,-0.518505 z"
     id="base"
     inkscape:connector-curvature="0" />
  <path
     d="m 18.891166,1.1229593 c 0.600257,-0.18658222 -0.724268,0.045852 1.512187,-0.00101 0.551343,-0.011564 0.03564,-0.1098073 -0.857062,1.9006861 -0.632378,1.4534926 -1.241161,2.9803442 -2.565626,3.9684318 -0.922125,1.238531 -2.673146,1.0863193 -4.069732,1.0302867 -0.808253,0.234897 -1.776949,3.4649851 -1.246332,4.2764001 0.295419,0.451748 -0.783151,0.886205 -0.661421,-0.139866 0.03034,-0.255718 0.481597,-3.5629927 0.983138,-4.2217395 0.885914,-1.1636024 1.847398,-2.0753887 2.082909,-2.4355593 1.440399,-1.4394336 3.35987,-2.4497105 4.916145,-3.6263973 -2.676694,0.8156138 -5.358198,1.9689723 -6.56525,4.6426724 -0.515098,0.5278338 -0.903592,1.302042 -0.832581,1.0458514 0.559906,-3.3784066 3.403232,-6.60950972 7.303625,-6.4397127 z"
     id="leaf"
     inkscape:connector-curvature="0" />
</svg>
